<mxfile host="app.diagrams.net" modified="2023-10-30T17:23:07.954Z" agent="Mozilla/5.0 (Windows NT 10.0; Win64; x64) AppleWebKit/537.36 (KHTML, like Gecko) Chrome/109.0.0.0 Safari/537.36" version="22.0.8" etag="3Ns2KVzgChhVN_kvmhIw" type="github">
  <diagram name="Страница — 1" id="PwmKHHaf_U7UQAFED_Nw">
    <mxGraphModel>
      <root>
        <mxCell id="0" />
        <mxCell id="1" parent="0" />
      </root>
    </mxGraphModel>
  </diagram>
</mxfile>
